/* XPM */
static char *aawmh_8iedf[] = {
/* columns rows colors chars-per-pixel */
"64 64 239 2 ",
"   c None",
".  c black",
"X  c #080702",
"o  c #151204",
"O  c #181507",
"+  c #1A1706",
"@  c #1F1A03",
"#  c #1A1515",
"$  c #211D07",
"%  c #231C09",
"&  c #221C17",
"*  c #231C17",
"=  c #271F1F",
"-  c #272203",
";  c #2F2606",
":  c #322C08",
">  c #342D08",
",  c #3F370F",
"<  c #3C2D1B",
"1  c #2F2C27",
"2  c #322B29",
"3  c #3B372B",
"4  c #3F362D",
"5  c #242332",
"6  c #262433",
"7  c #2A2734",
"8  c #342E37",
"9  c #363333",
"0  c #393631",
"q  c #3A3533",
"w  c #3B3832",
"e  c #3A3239",
"r  c #3E3538",
"t  c #3F3638",
"y  c #3E343B",
"u  c #413604",
"i  c #453708",
"p  c #4F3F0A",
"a  c #403711",
"s  c #5A3F1F",
"d  c #493721",
"f  c #493729",
"g  c #403B2A",
"h  c #403833",
"j  c #443C32",
"k  c #40363B",
"l  c #42373C",
"z  c #41383A",
"x  c #44393C",
"c  c #463A3D",
"v  c #483B3E",
"b  c #4A3C3F",
"n  c #4E4506",
"m  c #47400F",
"M  c #544205",
"N  c #554B11",
"B  c #564D12",
"V  c #5A511D",
"C  c #6E5B07",
"Z  c #66510D",
"A  c #6A5D0A",
"S  c #70530E",
"D  c #625516",
"F  c #766709",
"G  c #72631E",
"H  c #474127",
"J  c #4F402C",
"K  c #4F452D",
"L  c #5E4A24",
"P  c #524B2D",
"I  c #5C5325",
"U  c #5B502E",
"Y  c #474036",
"T  c #494335",
"R  c #4D4735",
"E  c #4E4737",
"W  c #504A35",
"Q  c #5C4D37",
"!  c #55443F",
"~  c #5B483B",
"^  c #5B4C3A",
"/  c #5B4A3E",
"(  c #5F4E3C",
")  c #575137",
"_  c #5B5236",
"`  c #5F5537",
"'  c #674E20",
"]  c #625923",
"[  c #655B27",
"{  c #6C542F",
"}  c #665B29",
"|  c #795D26",
" . c #7F5F24",
".. c #7B5C2D",
"X. c #635136",
"o. c #6B5636",
"O. c #6D5B36",
"+. c #64533A",
"@. c #6F5E3F",
"#. c #7A642C",
"$. c #7A682B",
"%. c #6C6331",
"&. c #6E6633",
"*. c #766432",
"=. c #7A6533",
"-. c #7B6830",
";. c #766F3E",
":. c #7E6D3F",
">. c #7B7131",
",. c #504041",
"<. c #524242",
"1. c #584940",
"2. c #5F4F43",
"3. c #5E5243",
"4. c #71534C",
"5. c #6F4558",
"6. c #675D55",
"7. c #716042",
"8. c #736245",
"9. c #736E65",
"0. c #8A6F0F",
"q. c #84740C",
"w. c #9D780F",
"e. c #8A6D13",
"r. c #83751D",
"t. c #927915",
"y. c #9E7B12",
"u. c #927A1A",
"i. c #826429",
"p. c #8B6B2A",
"a. c #8E692D",
"s. c #8B7021",
"d. c #8A7327",
"f. c #897B25",
"g. c #9F7D23",
"h. c #94732E",
"j. c #96752F",
"k. c #8B693C",
"l. c #8A4958",
"z. c #B97858",
"x. c #877D6E",
"c. c #C1677C",
"v. c #9D8A0C",
"b. c #998110",
"n. c #9D8B17",
"m. c #A2830D",
"M. c #A7890D",
"N. c #B18F0B",
"B. c #A5900E",
"V. c #B5950C",
"C. c #BA9D0D",
"Z. c #A38A13",
"A. c #A08D10",
"S. c #AB8E1E",
"D. c #A49116",
"F. c #AD9510",
"G. c #AA9615",
"H. c #AB9417",
"J. c #AC9619",
"K. c #AE971A",
"L. c #A9931C",
"P. c #B19411",
"I. c #B7A112",
"U. c #BAA11D",
"Y. c #978224",
"T. c #AD852D",
"R. c #A39836",
"E. c #AF9D3C",
"W. c #BBAD3F",
"Q. c #C1A70F",
"!. c #C5AD10",
"~. c #CDB61A",
"^. c #CBB21E",
"/. c #CFB81D",
"(. c #C1A120",
"). c #C2A122",
"_. c #C4AB21",
"`. c #C1AF28",
"'. c #C1AC2A",
"]. c #CFB927",
"[. c #C7B22B",
"{. c #C5B32D",
"}. c #C4B02F",
"|. c #C5B32E",
" X c #D7BB2F",
".X c #C1AC3A",
"XX c #CEB23D",
"oX c #CEB838",
"OX c #D0B734",
"+X c #D6BB34",
"@X c #D7C127",
"#X c #D9C32A",
"$X c #DDC82F",
"%X c #DDC736",
"&X c #DFCA32",
"*X c #E3CF37",
"=X c #E1CD3A",
"-X c #E5D13A",
";X c #E7D33C",
":X c #918A5D",
">X c #A08942",
",X c #B39D44",
"<X c #A39552",
"1X c #A59A56",
"2X c #AFA57F",
"3X c #D29944",
"4X c #C2AD42",
"5X c #CBBD46",
"6X c #DEA05C",
"7X c #CC936C",
"8X c #EEB271",
"9X c #D4C64C",
"0X c #DBC448",
"qX c #DAC94C",
"wX c #E0CA49",
"eX c #E4CF4B",
"rX c #EAD644",
"tX c #EBD842",
"yX c #EDDA44",
"uX c #EFDC47",
"iX c #E3D248",
"pX c #F0DD4C",
"aX c #E3D250",
"sX c #EBDA52",
"dX c #EBDB56",
"fX c #F5DD57",
"gX c #F3E14C",
"hX c #F7E652",
"jX c #F7E759",
"kX c #F7E75C",
"lX c #E6D778",
"zX c #E1D27D",
"xX c #F7E861",
"cX c #F7EB79",
"vX c #E67F91",
"bX c #E67B94",
"nX c #F7ED89",
"mX c #F7ED8C",
"MX c #F7EF94",
/* pixels */
"                                                                                                                                ",
"                                                                                                                                ",
"                                                                                                                                ",
"                                                                                                                                ",
"                                                                                                                                ",
"                                                                                                                                ",
"                                                                                                                                ",
"                                                                                                                                ",
"                                                                                                                                ",
"                                                                                                                                ",
"                                                                                                                                ",
"                                                                                                                                ",
"                                                                                                                                ",
"                                                                                                                                ",
"                                                                                                                                ",
"                                                                                                                                ",
"                                                    6                                                                           ",
"                                                    y e                                                                         ",
"                                                  h b <.r                                                                       ",
"                                                  8 <.<.,.t                                                                     ",
"                                                  8 ~ ! y.( e                                                                   ",
"                                                K k s.d.!.L.+.e                                                                 ",
"                                                7 <.Y.!.!.!.L.( 0             W R                                               ",
"                                                7 { P.!.!.!.!.y.w           ) k v z 9 9                                         ",
"                                                q $.!.!.!.!.Q.g             f./.8.@./ <.7 7 E                                   ",
"                                                  } r.I.!.!.t.U           %.W.hXhXtXE.2.<.<.k 5                                 ",
"                                                      [ G N.e.p.h.j.      &.uXhXhXtXE.2.<.c 8 Y                                 ",
"                                                      .. .oXlXzXwXOXg.a.P |.hXhXhXgX[.K.<.y T                                   ",
"                                                    i.U.nXMXMXnXhXhXhXhX).hXhXhXhXgX[.+.x                                       ",
"                                                    3.,XjXcXcXjXhXhXhXhXpX.X9XhXgX}.O.l                                         ",
"                                                  L 9.J hXhXhXhXaX>X0XhXrXZ.>.;.[.O.k _                                         ",
"                                                  f < s hXhXhXhX2Xx.' eXyX!.]   Q 7 `                                           ",
"                                                  5.z._.).hXhXhX1 6.2 5X-X!.n                                                   ",
"                                                  4.7XfXgX%X+XpX1XD <XdX3XT.N                                                   ",
"                                                    k. XgX%X+XpXgX*XuX8XbXl.                                                    ",
"                                                  1.j G./.&XhXhXhX;X6XvXc.d                                                     ",
"                                                8.hX#XI 4 *.K.K.J.D.A.m % H                                                     ",
"                                                :.4X^.C.| <.<.<.v 3 B {.XX:X                                                    ",
"                                                  =.#.w.( -.-.( ^ n.!.!.`.V                                                     ",
"                                                      o.7.iXiXqX7.$XV.u >   O                                                   ",
"                                                      X.].mXmXkXhX*X!.-   . = #                                                 ",
"                                                        H.sXxXhXgX@XF.@ X + . = *                                               ",
"                                                        b.u.'.#X(.m.p a     . . &                                               ",
"                                                      R.=XM.M Z S 0.B.:     $ .                                                 ",
"                                                      q.v.A     ; S.rX~.o                                                       ",
"                                                        ,         i C F                                                         ",
"                                                                                                                                ",
"                                                                                                                                ",
"                                                                                                                                ",
"                                                                                                                                ",
"                                                                                                                                ",
"                                                                                                                                ",
"                                                                                                                                ",
"                                                                                                                                ",
"                                                                                                                                ",
"                                                                                                                                ",
"                                                                                                                                ",
"                                                                                                                                ",
"                                                                                                                                ",
"                                                                                                                                ",
"                                                                                                                                ",
"                                                                                                                                ",
"                                                                                                                                ",
"                                                                                                                                "
};
